<?xml version="1.0" standalone="no"?><!DOCTYPE svg PUBLIC "-//W3C//DTD SVG 1.1//EN" "http://www.w3.org/Graphics/SVG/1.1/DTD/svg11.dtd"><svg t="1604644683528" class="icon" viewBox="0 0 1448 1024" version="1.1" xmlns="http://www.w3.org/2000/svg" p-id="2923" xmlns:xlink="http://www.w3.org/1999/xlink" width="282.8125" height="200"><defs><style type="text/css"></style></defs><path d="M960 268.8c-26.88-34.56-62.72-64-102.4-84.48-40.96-20.48-85.76-30.72-133.12-30.72-79.36 0-153.6 30.72-209.92 87.04-53.76 53.76-84.48 125.44-87.04 202.24-56.32 0-110.08 21.76-149.76 62.72-39.68 39.68-62.72 93.44-62.72 149.76 0 56.32 21.76 110.08 62.72 149.76 39.68 39.68 93.44 62.72 149.76 62.72h213.76c19.2 0 33.28-15.36 33.28-33.28 0-19.2-15.36-33.28-33.28-33.28H427.52c-38.4 0-74.24-15.36-101.12-42.24-26.88-26.88-42.24-64-42.24-101.12 0-38.4 15.36-74.24 42.24-101.12 26.88-26.88 64-42.24 101.12-42.24h34.56c8.96 0 17.92-3.84 25.6-11.52 6.4-7.68 8.96-16.64 8.96-25.6-1.28-7.68-1.28-15.36-1.28-23.04 0-61.44 24.32-119.04 66.56-162.56 43.52-43.52 101.12-66.56 162.56-66.56 35.84 0 70.4 7.68 102.4 24.32 30.72 15.36 57.6 38.4 78.08 65.28 6.4 8.96 16.64 12.8 26.88 12.8 7.68 0 14.08-2.56 20.48-7.68 7.68-5.12 11.52-14.08 12.8-23.04 2.56-12.8 0-21.76-5.12-28.16z" p-id="2924" fill="#cdcdcd"></path><path d="M1152 455.68c0-2.56-1.28-5.12-2.56-8.96l-1.28-2.56c-5.12-10.24-16.64-17.92-28.16-19.2H792.32c-14.08 0-25.6 7.68-32 19.2l-1.28 3.84c-1.28 2.56-1.28 5.12-2.56 7.68l-66.56 234.24c10.24-2.56 20.48-5.12 30.72-5.12h467.2c10.24 0 20.48 2.56 30.72 5.12L1152 455.68zM1190.4 709.12H723.2c-25.6 0-46.08 20.48-46.08 44.8s20.48 57.6 46.08 57.6H1190.4c25.6 0 46.08-32 46.08-57.6 1.28-24.32-20.48-44.8-46.08-44.8z m-47.36 75.52c-14.08 0-25.6-11.52-25.6-24.32 0-14.08 11.52-24.32 25.6-24.32s25.6 11.52 25.6 24.32c0 12.8-11.52 24.32-25.6 24.32z" p-id="2925" fill="#cdcdcd"></path></svg>