<?xml version="1.0" standalone="no"?><!DOCTYPE svg PUBLIC "-//W3C//DTD SVG 1.1//EN" "http://www.w3.org/Graphics/SVG/1.1/DTD/svg11.dtd"><svg t="1605429486321" class="icon" viewBox="0 0 1024 1024" version="1.1" xmlns="http://www.w3.org/2000/svg" p-id="2859" xmlns:xlink="http://www.w3.org/1999/xlink" width="200" height="200"><defs><style type="text/css"></style></defs><path d="M716.29895 806.808621C641.509798 862.822176 548.629446 896 448 896 200.576432 896 0 695.423565 0 448 0 200.576432 200.576432 0 448 0 695.423565 0 896 200.576432 896 448 896 548.629446 862.822176 641.509798 806.808621 716.29895L946.011456 855.501786C970.889978 880.380314 970.970976 920.635366 945.803174 945.803174 920.809619 970.79673 879.927322 970.436992 855.501786 946.011456L716.29895 806.808621ZM448 768C624.73112 768 768 624.73112 768 448 768 271.26888 624.73112 128 448 128 271.26888 128 128 271.26888 128 448 128 624.73112 271.26888 768 448 768Z" p-id="2860" fill="#ffffff"></path></svg>