<?xml version="1.0" standalone="no"?><!DOCTYPE svg PUBLIC "-//W3C//DTD SVG 1.1//EN" "http://www.w3.org/Graphics/SVG/1.1/DTD/svg11.dtd"><svg t="1604402728738" class="icon" viewBox="0 0 1024 1024" version="1.1" xmlns="http://www.w3.org/2000/svg" p-id="3089" xmlns:xlink="http://www.w3.org/1999/xlink" width="200" height="200"><defs><style type="text/css"></style></defs><path d="M512.149403 64.993247c-246.710938 0-446.708971 199.999057-446.708971 446.708971S265.438465 958.411189 512.149403 958.411189s446.708971-199.999057 446.708971-446.708971S758.860341 64.993247 512.149403 64.993247zM532.637016 500.642325c-0.804319 0.630357-0.9967 1.260713-3.043313 1.89107 0 1.865487 0 3.730974 0 5.596462 0 79.730902 0.478907 158.448732 0.797156 238.177588 0.045025 11.405771-2.819209 19.756973-13.477966 22.826891-3.175319 0-6.350638 0-9.526981 0-10.658757-3.069919-13.474896-11.42112-13.429871-22.826891 0.318248-79.729879 0.845251-158.447708 0.845251-238.177588 0-1.87265 0-3.744277 0-5.616928-2.046612-0.623193-2.286066-1.24741-3.091408-1.870604-0.850367 1.74883-1.650593 3.88447-2.949168 5.188162-12.447497 12.496615-25.142633 24.917506-37.779442 37.22174-6.405897 6.237051-14.499226 7.519254-21.975501 3.946892-6.938016-3.314489-11.555174-10.335393-10.289344-18.024515 0.697895-4.239558 2.723018-9.003048 5.699816-12.004405 24.471344-24.667819 49.239448-49.031716 74.046437-73.362868 8.253988-8.095375 19.135826-8.094352 27.390837 0.002047 24.808012 24.331151 49.526997 48.751331 74.166163 73.253374 7.865131 7.821129 7.893784 19.063171 0.50142 26.484188-7.363711 7.391341-18.752086 7.630794-26.631544 0.051165-12.837376-12.350283-25.750477-24.950252-38.32691-37.567617C534.264073 504.527818 533.487384 502.392178 532.637016 500.642325zM812.026214 540.409027c0 3.925403-1.531889 7.875365-2.509147 11.773138-10.3006 41.091884-47.035246 70.433142-89.373517 70.723761-43.918255 0.301875-87.813998 0.118704-131.733277 0.077771-11.806907-0.011256-19.980054-7.792477-19.926842-18.645662 0.053212-10.82351 8.299013-18.395976 20.168342-18.404162 43.567261-0.032746 87.138616 0.130983 130.704854-0.102331 25.739221-0.138146 48.03604-18.170848 53.782927-42.772152 7.909134-33.861202-17.124006-66.745147-51.92665-68.211545-15.173584-0.638543-21.067828-6.6607-21.509896-21.971407-2.360767-81.927941-62.558801-149.361773-144.105049-161.427576-75.626421-11.189853-150.83431 27.891234-181.954075 95.138824-4.982478 10.767228-8.115841 22.488177-11.200086 34.010605-3.108804 11.612479-9.17087 17.070794-21.219277 17.178241-12.488429 0.11154-24.994254-0.684592-37.283138 2.87242-33.966603 9.831926-56.548924 41.434691-54.061266 76.066443 2.526543 35.178197 29.122271 63.560618 64.149019 68.292386 4.697999 0.63445 9.481955 0.86981 14.227026 0.87902 35.982516 0.070608 71.965032 0.01535 107.948571 0.053212 10.328229 0.011256 18.287505 6.570649 19.419282 15.791661 1.409093 11.482519-6.567579 21.147646-18.204617 21.186532-39.685861 0.134053-79.397305 0.867764-119.052466-0.25071-53.241598-1.50119-98.198509-43.513026-105.179504-96.29516-0.130983-0.992607-0.816598-1.935072-0.816598-2.90005 0-7.762801 0-15.524578 0-23.287379 0-4.086062 1.509377-8.188496 2.455935-12.256138 11.872399-51.04149 56.398498-86.756923 108.843964-87.239923 1.401929-0.013303 2.76702-0.002047 4.471848-0.002047 2.088568-6.025227 3.845585-12.07399 6.226818-17.874089 27.41335-66.76152 77.180823-108.3538 146.690944-124.286678 77.786621-17.830087 146.062634 2.293229 201.723328 60.185754 31.133068 32.381501 48.54053 71.76651 53.248761 116.556623 0.336668 3.207042 1.577938 4.27435 4.602831 5.129834 39.774889 11.252275 63.686485 36.923958 70.701249 77.986165 0.113587 0.663102 0.692778 1.276063 0.692778 1.912559C812.026214 527.001669 812.026214 533.705348 812.026214 540.409027z" p-id="3090" fill="#cdcdcd"></path></svg>