<?xml version="1.0" standalone="no"?><!DOCTYPE svg PUBLIC "-//W3C//DTD SVG 1.1//EN" "http://www.w3.org/Graphics/SVG/1.1/DTD/svg11.dtd"><svg t="1604992298244" class="icon" viewBox="0 0 1024 1024" version="1.1" xmlns="http://www.w3.org/2000/svg" p-id="6791" xmlns:xlink="http://www.w3.org/1999/xlink" width="200" height="200"><defs><style type="text/css"></style></defs><path d="M916.48 181.76h-232.96l-74.24-74.24c-5.12-5.12-10.24-5.12-15.36-5.12h-161.28c-5.12 0-10.24 2.56-15.36 5.12l-74.24 74.24h-232.96c-10.24 0-20.48 7.68-20.48 20.48 0 10.24 10.24 20.48 20.48 20.48h240.64c5.12 0 12.8-2.56 15.36-5.12l74.24-74.24h138.24l74.24 74.24c5.12 5.12 10.24 5.12 15.36 5.12h240.64c10.24 0 20.48-7.68 20.48-20.48 7.68-10.24-2.56-20.48-12.8-20.48zM394.24 796.16v-424.96c0-10.24-33.28-20.48-40.96-20.48s-12.8 7.68-12.8 20.48v424.96c0 10.24 5.12 20.48 12.8 20.48 5.12-2.56 40.96-10.24 40.96-20.48zM555.52 796.16v-424.96c0-10.24-33.28-20.48-40.96-20.48-7.68 0-12.8 7.68-12.8 20.48v424.96c0 10.24 5.12 20.48 12.8 20.48 7.68-2.56 40.96-10.24 40.96-20.48zM719.36 796.16v-424.96c0-10.24-33.28-20.48-40.96-20.48-7.68 0-12.8 7.68-12.8 20.48v424.96c0 10.24 5.12 20.48 12.8 20.48 7.68-2.56 40.96-10.24 40.96-20.48z" fill="#cdcdcd" p-id="6792"></path><path d="M855.04 322.56c-10.24 0-20.48 7.68-20.48 20.48V870.4c0 23.04-17.92 40.96-40.96 40.96h-560.64c-23.04 0-40.96-17.92-40.96-40.96v-529.92c0-10.24-10.24-20.48-20.48-20.48s-17.92 5.12-20.48 15.36V870.4c0 43.52 35.84 79.36 81.92 79.36h560.64c46.08 0 81.92-35.84 81.92-79.36v-529.92c0-10.24-10.24-17.92-20.48-17.92z" fill="#cdcdcd" p-id="6793"></path></svg>