<?xml version="1.0" standalone="no"?><!DOCTYPE svg PUBLIC "-//W3C//DTD SVG 1.1//EN" "http://www.w3.org/Graphics/SVG/1.1/DTD/svg11.dtd"><svg t="1604992739502" class="icon" viewBox="0 0 1024 1024" version="1.1" xmlns="http://www.w3.org/2000/svg" p-id="3968" xmlns:xlink="http://www.w3.org/1999/xlink" width="200" height="200"><defs><style type="text/css"></style></defs><path d="M795.694545 395.636364a289.047273 289.047273 0 0 0-567.38909 0 197.585455 197.585455 0 0 0 18.385454 395.636363h30.952727a23.272727 23.272727 0 0 0 0-46.545454H246.690909a151.272727 151.272727 0 1 1-2.327273-302.545455l23.272728 5.352727 3.025454-25.6a242.269091 242.269091 0 0 1 480.814546 0l4.654545 25.134546 23.272727-4.887273a151.272727 151.272727 0 1 1-2.327272 302.545455h-34.909091a23.272727 23.272727 0 0 0 0 46.545454h35.141818a197.585455 197.585455 0 0 0 18.385454-395.636363z" p-id="3969" fill="#cdcdcd"></path><path d="M528.523636 480.349091a23.272727 23.272727 0 0 0-33.047272 0l-131.490909 131.490909a23.272727 23.272727 0 0 0 0 33.047273 23.272727 23.272727 0 0 0 32.814545 0L488.727273 552.96V837.818182a23.272727 23.272727 0 0 0 46.545454 0V552.96l93.090909 91.927273a23.272727 23.272727 0 0 0 16.523637 6.749091 23.272727 23.272727 0 0 0 16.290909-39.796364z" p-id="3970" fill="#cdcdcd"></path></svg>