<?xml version="1.0" standalone="no"?><!DOCTYPE svg PUBLIC "-//W3C//DTD SVG 1.1//EN" "http://www.w3.org/Graphics/SVG/1.1/DTD/svg11.dtd"><svg t="1605106384668" class="icon" viewBox="0 0 1024 1024" version="1.1" xmlns="http://www.w3.org/2000/svg" p-id="6254" xmlns:xlink="http://www.w3.org/1999/xlink" width="200" height="200"><defs><style type="text/css"></style></defs><path d="M512 371.2c-15.36 0-25.6 10.24-25.6 25.6v414.72L353.28 691.2c-10.24-10.24-25.6-7.68-35.84 2.56-10.24 10.24-7.68 25.6 2.56 35.84l176.64 161.28c5.12 5.12 10.24 7.68 17.92 7.68 2.56 0 7.68 0 10.24-2.56 10.24-5.12 15.36-12.8 15.36-23.04V396.8c-2.56-12.8-12.8-25.6-28.16-25.6zM670.72 691.2l-110.08 99.84c-10.24 10.24-10.24 25.6-2.56 35.84 5.12 5.12 12.8 7.68 17.92 7.68 5.12 0 12.8-2.56 17.92-7.68l110.08-99.84c10.24-10.24 10.24-25.6 2.56-35.84-7.68-10.24-25.6-10.24-35.84 0z" p-id="6255" fill="#ffffff"></path><path d="M773.12 368.64c-2.56-140.8-120.32-256-261.12-256S253.44 227.84 250.88 368.64C110.08 378.88 0 496.64 0 640c0 148.48 120.32 271.36 271.36 271.36 15.36 0 25.6-10.24 25.6-25.6s-10.24-25.6-25.6-25.6C148.48 860.16 51.2 760.32 51.2 640c0-120.32 97.28-220.16 220.16-220.16h2.56c7.68 0 15.36-2.56 20.48-7.68 5.12-5.12 7.68-12.8 7.68-20.48v-17.92c0-115.2 94.72-209.92 209.92-209.92s209.92 94.72 209.92 209.92v17.92c0 7.68 2.56 15.36 7.68 20.48 5.12 5.12 12.8 7.68 20.48 7.68h5.12c120.32 0 220.16 99.84 220.16 220.16s-99.84 220.16-220.16 220.16c-15.36 0-25.6 10.24-25.6 25.6s10.24 25.6 25.6 25.6C903.68 911.36 1024 788.48 1024 640c0-143.36-110.08-261.12-250.88-271.36z" p-id="6256" fill="#ffffff"></path></svg>