<?xml version="1.0" standalone="no"?><!DOCTYPE svg PUBLIC "-//W3C//DTD SVG 1.1//EN" "http://www.w3.org/Graphics/SVG/1.1/DTD/svg11.dtd"><svg t="1605106190160" class="icon" viewBox="0 0 1024 1024" version="1.1" xmlns="http://www.w3.org/2000/svg" p-id="3257" xmlns:xlink="http://www.w3.org/1999/xlink" width="200" height="200"><defs><style type="text/css"></style></defs><path d="M754.8 348.7C728.5 238.3 629.9 156.2 512 156.2s-216.5 82.1-242.8 192.4C152.5 369.9 64 472.4 64 595.7c0 129 96.9 235.3 221.6 249.5 15.1 1.7 28.5-9.9 28.5-25.2v-1.5c0-13.2-10.1-23.8-23.1-25.3-98.4-11.5-174.9-95.5-174.9-197.5 0-109.8 88.6-198.8 198-198.8h0.5c0.7-12.7 2.5-25 5.4-36.9 0.4-1.5 0.7-2.9 1.1-4.4 0.9-3.3 1.8-6.5 2.8-9.7C349.6 266.2 424 208.6 512 208.6S674.4 266.2 700.1 346c1 3.2 2 6.4 2.8 9.7 0.4 1.5 0.7 2.9 1.1 4.4 2.9 11.9 4.7 24.3 5.4 36.9h0.5c109.3 0 198 89 198 198.8 0 102-76.4 186-174.9 197.5-13 1.5-23.1 12.1-23.1 25.3v1.5c0 15.3 13.4 27 28.5 25.2C863.1 831 960 724.7 960 595.7c0-123.3-88.5-225.8-205.2-247z" fill="#ffffff" p-id="3258"></path><path d="M531.5 478.9c-0.3-0.4-0.6-0.8-1-1.2-5.1-5.1-11.8-7.7-18.5-7.7-6.7 0-13.4 2.5-18.5 7.7-0.4 0.4-0.6 0.8-1 1.2l-124 124.6c-10.2 10.2-10.2 26.8 0 37s26.7 10.2 36.8 0L512 533.3l106.7 107.2c10.2 10.2 26.7 10.2 36.8 0s10.2-26.8 0-37l-124-124.6z" fill="#ffffff" p-id="3259"></path><path d="M512 616.6c-14.4 0-26 11.7-26 26.2v198.8c0 14.4 11.7 26.2 26 26.2 14.4 0 26-11.7 26-26.2V642.8c0-14.5-11.6-26.2-26-26.2z" fill="#ffffff" p-id="3260"></path></svg>